<?xml version="1.0" encoding="UTF-8"?>
<svg width="155px" height="29px" viewBox="0 0 155 29" version="1.1" xmlns="http://www.w3.org/2000/svg" xmlns:xlink="http://www.w3.org/1999/xlink">
    <!-- Generator: Sketch 49.3 (51167) - http://www.bohemiancoding.com/sketch -->
    <title>bdg-logo</title>
    <desc>Created with Sketch.</desc>
    <defs>
        <polygon id="path-1" points="0.000103448276 0.285161538 26.8965517 0.285161538 26.8965517 5.19241154 0.000103448276 5.19241154"></polygon>
    </defs>
    <g id="Page-1" stroke="none" stroke-width="1" fill="none" fill-rule="evenodd">
        <g id="Desktop-HD-Copy-4" transform="translate(-18.000000, -19.000000)">
            <g id="header">
                <g id="bdg-logo" transform="translate(18.000000, 19.000000)">
                    <path d="M47.32,6.055 C48.2400046,6.58500265 48.7,7.38499465 48.7,8.455 C48.7,9.34500445 48.3850032,10.0749972 47.755,10.645 C47.1249969,11.2150029 46.3500046,11.5 45.43,11.5 L40.975,11.5 L40.975,1 L45.115,1 C46.0150045,1 46.7724969,1.27749723 47.3875,1.8325 C48.0025031,2.38750278 48.31,3.0949957 48.31,3.955 C48.31,4.82500435 47.9800033,5.52499735 47.32,6.055 Z M45.115,2.935 L43.045,2.935 L43.045,5.245 L45.115,5.245 C45.4350016,5.245 45.7024989,5.1350011 45.9175,4.915 C46.1325011,4.6949989 46.24,4.42000165 46.24,4.09 C46.24,3.75999835 46.135001,3.4850011 45.925,3.265 C45.714999,3.0449989 45.4450017,2.935 45.115,2.935 Z M45.43,9.565 C45.7800017,9.565 46.0699988,9.44750118 46.3,9.2125 C46.5300011,8.97749883 46.645,8.6800018 46.645,8.32 C46.645,7.96999825 46.5300011,7.67750118 46.3,7.4425 C46.0699988,7.20749883 45.7800017,7.09 45.43,7.09 L43.045,7.09 L43.045,9.565 L45.43,9.565 Z M50.15,1 L52.22,1 L52.22,11.5 L50.15,11.5 L50.15,1 Z M56.34,9.52 L60.345,9.52 L60.345,11.5 L54.27,11.5 L54.27,1 L56.34,1 L56.34,9.52 Z M63.685,9.52 L67.69,9.52 L67.69,11.5 L61.615,11.5 L61.615,1 L63.685,1 L63.685,9.52 Z M68.96,1 L71.03,1 L71.03,11.5 L68.96,11.5 L68.96,1 Z M81.915,10.135 C80.8549947,11.1850053 79.5650076,11.71 78.045,11.71 C76.5249924,11.71 75.2375053,11.1825053 74.1825,10.1275 C73.1274947,9.07249473 72.6,7.78000765 72.6,6.25 C72.6,4.71999235 73.1274947,3.42750528 74.1825,2.3725 C75.2375053,1.31749473 76.5249924,0.79 78.045,0.79 C79.5650076,0.79 80.8549947,1.31749473 81.915,2.3725 C82.9750053,3.42750528 83.505,4.71999235 83.505,6.25 C83.505,7.78000765 82.9750053,9.0749947 81.915,10.135 Z M75.63,8.725 C76.2800032,9.3650032 77.0849952,9.685 78.045,9.685 C79.0050048,9.685 79.8099967,9.36250323 80.46,8.7175 C81.1100032,8.07249678 81.435,7.250005 81.435,6.25 C81.435,5.249995 81.1100032,4.42500325 80.46,3.775 C79.8099967,3.12499675 79.0050048,2.8 78.045,2.8 C77.0849952,2.8 76.2800032,3.12499675 75.63,3.775 C74.9799967,4.42500325 74.655,5.249995 74.655,6.25 C74.655,7.250005 74.9799967,8.07499675 75.63,8.725 Z M91.135,1 L93.205,1 L93.205,11.5 L91.63,11.5 L87.13,5.08 L87.13,11.5 L85.06,11.5 L85.06,1 L86.635,1 L91.135,7.405 L91.135,1 Z M103.275,1 C104.715007,1 105.917495,1.50499495 106.8825,2.515 C107.847505,3.52500505 108.33,4.7699926 108.33,6.25 C108.33,7.7300074 107.847505,8.97499495 106.8825,9.985 C105.917495,10.9950051 104.715007,11.5 103.275,11.5 L99.105,11.5 L99.105,1 L103.275,1 Z M103.275,9.52 C104.185005,9.52 104.924997,9.21750303 105.495,8.6125 C106.065003,8.00749698 106.35,7.22000485 106.35,6.25 C106.35,5.27999515 106.065003,4.49250303 105.495,3.8875 C104.924997,3.28249698 104.185005,2.98 103.275,2.98 L101.175,2.98 L101.175,9.52 L103.275,9.52 Z M118.735,10.135 C117.674995,11.1850053 116.385008,11.71 114.865,11.71 C113.344992,11.71 112.057505,11.1825053 111.0025,10.1275 C109.947495,9.07249473 109.42,7.78000765 109.42,6.25 C109.42,4.71999235 109.947495,3.42750528 111.0025,2.3725 C112.057505,1.31749473 113.344992,0.79 114.865,0.79 C116.385008,0.79 117.674995,1.31749473 118.735,2.3725 C119.795005,3.42750528 120.325,4.71999235 120.325,6.25 C120.325,7.78000765 119.795005,9.0749947 118.735,10.135 Z M112.45,8.725 C113.100003,9.3650032 113.904995,9.685 114.865,9.685 C115.825005,9.685 116.629997,9.36250323 117.28,8.7175 C117.930003,8.07249678 118.255,7.250005 118.255,6.25 C118.255,5.249995 117.930003,4.42500325 117.28,3.775 C116.629997,3.12499675 115.825005,2.8 114.865,2.8 C113.904995,2.8 113.100003,3.12499675 112.45,3.775 C111.799997,4.42500325 111.475,5.249995 111.475,6.25 C111.475,7.250005 111.799997,8.07499675 112.45,8.725 Z M123.95,9.52 L127.955,9.52 L127.955,11.5 L121.88,11.5 L121.88,1 L123.95,1 L123.95,9.52 Z M131.295,9.52 L135.3,9.52 L135.3,11.5 L129.225,11.5 L129.225,1 L131.295,1 L131.295,9.52 Z M143.62,11.5 L142.99,9.61 L138.805,9.61 L138.175,11.5 L135.94,11.5 L139.615,1 L142.18,1 L145.87,11.5 L143.62,11.5 Z M139.465,7.675 L142.345,7.675 L140.905,3.385 L139.465,7.675 Z M152.75,11.5 L150.635,7.855 L149.06,7.855 L149.06,11.5 L146.99,11.5 L146.99,1 L151.19,1 C152.160005,1 152.984997,1.3399966 153.665,2.02 C154.345003,2.7000034 154.685,3.5199952 154.685,4.48 C154.685,5.13000325 154.500002,5.73249723 154.13,6.2875 C153.759998,6.84250278 153.270003,7.2599986 152.66,7.54 L154.985,11.5 L152.75,11.5 Z M149.06,2.935 L149.06,6.04 L151.19,6.04 C151.580002,6.04 151.914999,5.88750153 152.195,5.5825 C152.475001,5.27749848 152.615,4.91000215 152.615,4.48 C152.615,4.04999785 152.475001,3.6850015 152.195,3.385 C151.914999,3.0849985 151.580002,2.935 151.19,2.935 L149.06,2.935 Z M51.28,22.36 L51.28,23.17 C51.28,24.6700075 50.8000048,25.8849954 49.84,26.815 C48.8799952,27.7450047 47.6400076,28.21 46.12,28.21 C44.4999919,28.21 43.1575053,27.6825053 42.0925,26.6275 C41.0274947,25.5724947 40.495,24.2850076 40.495,22.765 C40.495,21.2349924 41.0224947,19.9400053 42.0775,18.88 C43.1325053,17.8199947 44.4399922,17.29 46,17.29 C46.9800049,17.29 47.8749959,17.5124978 48.685,17.9575 C49.495004,18.4025022 50.1249977,18.9949963 50.575,19.735 L48.805,20.755 C48.5549987,20.3249979 48.1775025,19.9750014 47.6725,19.705 C47.1674975,19.4349987 46.6050031,19.3 45.985,19.3 C44.984995,19.3 44.1625032,19.6274967 43.5175,20.2825 C42.8724968,20.9375033 42.55,21.764995 42.55,22.765 C42.55,23.755005 42.8774967,24.5724968 43.5325,25.2175 C44.1875033,25.8625032 45.0549946,26.185 46.135,26.185 C46.935004,26.185 47.5974974,26.0075018 48.1225,25.6525 C48.6475026,25.2974982 49.0049991,24.8100031 49.195,24.19 L46.015,24.19 L46.015,22.36 L51.28,22.36 Z M59.225,28 L58.595,26.11 L54.41,26.11 L53.78,28 L51.545,28 L55.22,17.5 L57.785,17.5 L61.475,28 L59.225,28 Z M55.07,24.175 L57.95,24.175 L56.51,19.885 L55.07,24.175 Z M72.87,17.5 L72.87,28 L70.815,28 L70.815,21.19 L67.86,26.065 L67.62,26.065 L64.665,21.205 L64.665,28 L62.595,28 L62.595,17.5 L64.725,17.5 L67.74,22.465 L70.74,17.5 L72.87,17.5 Z M76.99,26.02 L81.415,26.02 L81.415,28 L74.92,28 L74.92,17.5 L81.34,17.5 L81.34,19.48 L76.99,19.48 L76.99,21.715 L80.965,21.715 L80.965,23.665 L76.99,23.665 L76.99,26.02 Z" id="Billion-Dollar-Game" fill="#5C5C76"></path>
                    <g id="Page-1" transform="translate(0.000000, 1.000000)">
                        <path d="M15,23.3652808 C7.57293103,23.3652808 1.55172414,21.8273192 1.55172414,20.2498962 L1.55172414,23.8824346 C1.55586207,25.4588192 7.575,26.9998962 15,26.9998962 C22.425,26.9998962 28.4441379,25.4588192 28.4482759,23.8824346 L28.4482759,20.2498962 C28.4482759,21.8273192 22.427069,23.3652808 15,23.3652808" id="Fill-1" fill="#E4AF18"></path>
                        <path d="M13.4482759,17.6537423 C6.0212069,17.6537423 0,16.1157808 0,14.5383577 L0,18.1708962 C0.00413793103,19.7472808 6.02327586,21.2883577 13.4482759,21.2883577 C20.8732759,21.2883577 26.8924138,19.7472808 26.8965517,18.1708962 L26.8965517,14.5383577 C26.8965517,16.1157808 20.8753448,17.6537423 13.4482759,17.6537423" id="Fill-3" fill="#F4BF1A"></path>
                        <path d="M16.5517241,11.9422038 C9.12465517,11.9422038 3.10344828,10.4042423 3.10344828,8.82681923 L3.10344828,12.4593577 C3.10758621,14.0357423 9.12672414,15.5768192 16.5517241,15.5768192 C23.9767241,15.5768192 29.9958621,14.0357423 30,12.4593577 L30,8.82681923 C30,10.4042423 23.9787931,11.9422038 16.5517241,11.9422038" id="Fill-5" fill="#E4AF18"></path>
                        <path d="M26.8965517,2.66375769 C26.8965517,4.24066154 20.8753448,5.71164231 13.4482759,5.71164231 C6.0212069,5.71164231 0,4.24066154 0,2.66375769 C0,1.08633462 6.0212069,0.000103846154 13.4482759,0.000103846154 C20.8753448,0.000103846154 26.8965517,1.08633462 26.8965517,2.66375769" id="Fill-7" fill="#FFD949"></path>
                        <path d="M13.4482759,5.71143462 C6.0212069,5.71143462 0,4.17347308 0,2.59605 L0,6.22858846 C0.00413793103,7.80497308 6.02327586,9.34605 13.4482759,9.34605 C20.8732759,9.34605 26.8924138,7.80497308 26.8965517,6.22858846 L26.8965517,2.59605 C26.8965517,4.17347308 20.8753448,5.71143462 13.4482759,5.71143462" id="Fill-9" fill="#F4BF1A"></path>
                        <path d="M2.06896552,4.19232115 L2.06896552,7.82434038 C2.38344828,7.94064808 2.72793103,8.05280192 3.10344828,8.15976346 L3.10344828,4.527225 C2.72793103,4.42026346 2.38344828,4.30810962 2.06896552,4.19232115" id="Fill-11" fill="#DCA815"></path>
                        <path d="M23.7931034,4.527225 L23.7931034,8.15976346 C24.1686207,8.05280192 24.5131034,7.94064808 24.8275862,7.82434038 L24.8275862,4.19232115 C24.5131034,4.30862885 24.1686207,4.42026346 23.7931034,4.527225" id="Fill-13" fill="#DCA815"></path>
                        <path d="M4.65517241,4.90423846 L4.65517241,8.53729615 C4.9862069,8.60635385 5.3312069,8.67177692 5.68965517,8.73356538 L5.68965517,5.10050769 C5.3312069,5.03871923 4.9862069,4.97329615 4.65517241,4.90423846" id="Fill-15" fill="#DCA815"></path>
                        <path d="M21.2068966,5.10045577 L21.2068966,8.73403269 C21.5653448,8.671725 21.9103448,8.60630192 22.2413793,8.53724423 L22.2413793,4.90418654 C21.9103448,4.97324423 21.5653448,5.03866731 21.2068966,5.10045577" id="Fill-17" fill="#DCA815"></path>
                        <path d="M7.24137931,5.33192885 L7.24137931,8.96550577 C7.57862069,9.00912115 7.92258621,9.04962115 8.27586207,9.08596731 L8.27586207,5.45239038 C7.92258621,5.41604423 7.57862069,5.375025 7.24137931,5.33192885" id="Fill-19" fill="#DCA815"></path>
                        <path d="M18.6206897,5.45285769 L18.6206897,9.08643462 C18.9739655,9.04956923 19.317931,9.00906923 19.6551724,8.96597308 L19.6551724,5.33187692 C19.317931,5.37601154 18.9739655,5.41651154 18.6206897,5.45285769" id="Fill-21" fill="#DCA815"></path>
                        <path d="M9.82758621,5.58645577 L9.82758621,9.22055192 C10.1674138,9.24443654 10.5118966,9.265725 10.862069,9.28285962 L10.862069,5.64824423 C10.5118966,5.63110962 10.1674138,5.61034038 9.82758621,5.58645577" id="Fill-23" fill="#DCA815"></path>
                        <path d="M16.0344828,5.64808846 L16.0344828,9.28270385 C16.3846552,9.26556923 16.7291379,9.24428077 17.0689655,9.22039615 L17.0689655,5.5863 C16.7291379,5.61018462 16.3846552,5.63095385 16.0344828,5.64808846" id="Fill-25" fill="#DCA815"></path>
                        <path d="M13.4482759,5.71143462 C13.275,5.71143462 13.1027586,5.70987692 12.9310345,5.70831923 L12.9310345,9.34293462 C13.1027586,9.34449231 13.275,9.34605 13.4482759,9.34605 C13.6215517,9.34605 13.7937931,9.34449231 13.9655172,9.34293462 L13.9655172,5.70831923 C13.7937931,5.70987692 13.6215517,5.71143462 13.4482759,5.71143462" id="Fill-27" fill="#DCA815"></path>
                        <path d="M5.17241379,10.4230904 L5.17241379,14.0551096 C5.48689655,14.1714173 5.83137931,14.2835712 6.20689655,14.3905327 L6.20689655,10.7579942 C5.83137931,10.6510327 5.48689655,10.5388788 5.17241379,10.4230904" id="Fill-29" fill="#C49214"></path>
                        <path d="M26.8965517,10.7579942 L26.8965517,14.3905327 C27.272069,14.2835712 27.6165517,14.1714173 27.9310345,14.0551096 L27.9310345,10.4230904 C27.6165517,10.5393981 27.272069,10.6510327 26.8965517,10.7579942" id="Fill-31" fill="#C49214"></path>
                        <path d="M7.75862069,11.1350077 L7.75862069,14.7680654 C8.08965517,14.8371231 8.43465517,14.9025462 8.79310345,14.9643346 L8.79310345,11.3312769 C8.43465517,11.2694885 8.08965517,11.2040654 7.75862069,11.1350077" id="Fill-33" fill="#C49214"></path>
                        <path d="M24.3103448,11.331225 L24.3103448,14.9648019 C24.6687931,14.9024942 25.0137931,14.8370712 25.3448276,14.7680135 L25.3448276,11.1349558 C25.0137931,11.2040135 24.6687931,11.2694365 24.3103448,11.331225" id="Fill-35" fill="#C49214"></path>
                        <path d="M10.3448276,11.5632173 L10.3448276,15.1973135 C10.682069,15.2409288 11.0260345,15.2809096 11.3793103,15.3172558 L11.3793103,11.6836788 C11.0260345,11.6468135 10.682069,11.6063135 10.3448276,11.5632173" id="Fill-37" fill="#C49214"></path>
                        <path d="M21.7241379,11.6831077 L21.7241379,15.3172038 C22.0774138,15.2803385 22.4213793,15.2403577 22.7586207,15.1972615 L22.7586207,11.5631654 C22.4213793,11.6067808 22.0774138,11.6472808 21.7241379,11.6831077" id="Fill-39" fill="#C49214"></path>
                        <path d="M12.9310345,11.817225 L12.9310345,15.4513212 C13.2708621,15.4746865 13.6153448,15.495975 13.9655172,15.5136288 L13.9655172,11.8790135 C13.6153448,11.8618788 13.2708621,11.8411096 12.9310345,11.817225" id="Fill-41" fill="#C49214"></path>
                        <path d="M19.137931,11.8788577 L19.137931,15.5134731 C19.4881034,15.4963385 19.8325862,15.47505 20.1724138,15.4511654 L20.1724138,11.8170692 C19.8325862,11.8409538 19.4881034,11.8617231 19.137931,11.8788577" id="Fill-43" fill="#C49214"></path>
                        <path d="M16.5517241,11.9422038 C16.3784483,11.9422038 16.2062069,11.9406462 16.0344828,11.9390885 L16.0344828,15.5737038 C16.2062069,15.5752615 16.3784483,15.5768192 16.5517241,15.5768192 C16.725,15.5768192 16.8972414,15.5752615 17.0689655,15.5737038 L17.0689655,11.9390885 C16.8972414,11.9406462 16.725,11.9422038 16.5517241,11.9422038" id="Fill-45" fill="#C49214"></path>
                        <path d="M2.06896552,16.1346288 L2.06896552,19.7666481 C2.38344828,19.8829558 2.72793103,19.9945904 3.10344828,20.1020712 L3.10344828,16.4695327 C2.72793103,16.3620519 2.38344828,16.2504173 2.06896552,16.1346288" id="Fill-47" fill="#DCA815"></path>
                        <path d="M23.7931034,16.4692731 L23.7931034,20.1018115 C24.1686207,19.99485 24.5131034,19.8826962 24.8275862,19.7669077 L24.8275862,16.1343692 C24.5131034,16.2506769 24.1686207,16.3623115 23.7931034,16.4692731" id="Fill-49" fill="#DCA815"></path>
                        <path d="M4.65517241,16.8465462 L4.65517241,20.4796038 C4.9862069,20.5486615 5.3312069,20.6140846 5.68965517,20.6758731 L5.68965517,17.0428154 C5.3312069,16.9810269 4.9862069,16.9156038 4.65517241,16.8465462" id="Fill-51" fill="#DCA815"></path>
                        <path d="M21.2068966,17.0427635 L21.2068966,20.6763404 C21.5653448,20.6140327 21.9103448,20.5486096 22.2413793,20.4795519 L22.2413793,16.8464942 C21.9103448,16.9155519 21.5653448,16.980975 21.2068966,17.0427635" id="Fill-53" fill="#DCA815"></path>
                        <path d="M7.24137931,17.2750154 L7.24137931,20.9085923 C7.57862069,20.9522077 7.92258621,20.9921885 8.27586207,21.0285346 L8.27586207,17.3949577 C7.92258621,17.3586115 7.57862069,17.3181115 7.24137931,17.2750154" id="Fill-55" fill="#DCA815"></path>
                        <path d="M18.6206897,17.3946462 L18.6206897,21.0287423 C18.9739655,20.9918769 19.317931,20.9518962 19.6551724,20.9088 L19.6551724,17.2752231 C19.317931,17.3188385 18.9739655,17.3593385 18.6206897,17.3946462" id="Fill-57" fill="#DCA815"></path>
                        <path d="M9.82758621,17.5285038 L9.82758621,21.1626 C10.1674138,21.1864846 10.5118966,21.2077731 10.862069,21.2249077 L10.862069,17.5902923 C10.5118966,17.5731577 10.1674138,17.5523885 9.82758621,17.5285038" id="Fill-59" fill="#DCA815"></path>
                        <path d="M16.0344828,17.5903962 L16.0344828,21.2250115 C16.3846552,21.2078769 16.7291379,21.1865885 17.0689655,21.1627038 L17.0689655,17.5286077 C16.7291379,17.5524923 16.3846552,17.5732615 16.0344828,17.5903962" id="Fill-61" fill="#DCA815"></path>
                        <path d="M13.4482759,17.6537423 C13.275,17.6537423 13.1027586,17.6521846 12.9310345,17.6506269 L12.9310345,21.2852423 C13.1027586,21.2868 13.275,21.2883577 13.4482759,21.2883577 C13.6215517,21.2883577 13.7937931,21.2868 13.9655172,21.2852423 L13.9655172,17.6506269 C13.7937931,17.6521846 13.6215517,17.6537423 13.4482759,17.6537423" id="Fill-63" fill="#DCA815"></path>
                        <path d="M3.62068966,21.8461673 L3.62068966,25.4781865 C3.93517241,25.5944942 4.27965517,25.7061288 4.65517241,25.8136096 L4.65517241,22.1810712 C4.27965517,22.0735904 3.93517241,21.9619558 3.62068966,21.8461673" id="Fill-65" fill="#C49214"></path>
                        <path d="M25.3448276,22.1808115 L25.3448276,25.81335 C25.7203448,25.7063885 26.0648276,25.5942346 26.3793103,25.4784462 L26.3793103,21.8459077 C26.0648276,21.9622154 25.7203448,22.07385 25.3448276,22.1808115" id="Fill-67" fill="#C49214"></path>
                        <path d="M6.20689655,22.5580846 L6.20689655,26.1911423 C6.53793103,26.2602 6.88293103,26.3256231 7.24137931,26.3874115 L7.24137931,22.7543538 C6.88293103,22.6925654 6.53793103,22.6271423 6.20689655,22.5580846" id="Fill-69" fill="#C49214"></path>
                        <path d="M22.7586207,22.7543019 L22.7586207,26.3878788 C23.117069,26.3255712 23.462069,26.2601481 23.7931034,26.1910904 L23.7931034,22.5580327 C23.462069,22.6270904 23.117069,22.6925135 22.7586207,22.7543019" id="Fill-71" fill="#C49214"></path>
                        <path d="M8.79310345,22.9865538 L8.79310345,26.6201308 C9.13034483,26.6637462 9.47431034,26.7037269 9.82758621,26.7400731 L9.82758621,23.1064962 C9.47431034,23.07015 9.13034483,23.02965 8.79310345,22.9865538" id="Fill-73" fill="#C49214"></path>
                        <path d="M20.1724138,23.1061846 L20.1724138,26.7402808 C20.5256897,26.7034154 20.8696552,26.6634346 21.2068966,26.6203385 L21.2068966,22.9867615 C20.8696552,23.0303769 20.5256897,23.0708769 20.1724138,23.1061846" id="Fill-75" fill="#C49214"></path>
                        <path d="M11.3793103,23.2400423 L11.3793103,26.8741385 C11.7191379,26.8980231 12.0636207,26.9193115 12.4137931,26.9364462 L12.4137931,23.3018308 C12.0636207,23.2846962 11.7191379,23.2639269 11.3793103,23.2400423" id="Fill-77" fill="#C49214"></path>
                        <path d="M17.5862069,23.3019346 L17.5862069,26.93655 C17.9363793,26.9194154 18.2808621,26.8981269 18.6206897,26.8742423 L18.6206897,23.2401462 C18.2808621,23.2640308 17.9363793,23.2848 17.5862069,23.3019346" id="Fill-79" fill="#C49214"></path>
                        <path d="M15,23.3652808 C14.8267241,23.3652808 14.6544828,23.3637231 14.4827586,23.3621654 L14.4827586,26.9967808 C14.6544828,26.9983385 14.8267241,26.9998962 15,26.9998962 C15.1732759,26.9998962 15.3455172,26.9983385 15.5172414,26.9967808 L15.5172414,23.3621654 C15.3455172,23.3637231 15.1732759,23.3652808 15,23.3652808" id="Fill-81" fill="#C49214"></path>
                        <path d="M26.4889138,18.8854096 C25.0199483,20.1824481 19.739431,21.2884096 13.4482241,21.2884096 C8.52925862,21.2884096 4.22943103,20.6118519 1.88477586,19.6969673 C1.66908621,19.8932365 1.55167241,20.1009288 1.55167241,20.3174481 C1.55167241,21.8948712 7.57287931,23.3653327 14.9999483,23.3653327 C22.4275345,23.3653327 28.4482241,21.8948712 28.4482241,20.3174481 C28.4482241,19.7738135 27.7318448,19.2878135 26.4889138,18.8854096" id="Fill-83" fill="#FCC62D"></path>
                        <path d="M16.5517241,15.5768192 C9.71741379,15.5768192 4.07793103,14.2709538 3.22034483,12.8337231 C1.21396552,13.2901269 0,13.8981462 0,14.6058577 C0,16.1827615 6.0212069,17.6537423 13.4482759,17.6537423 C20.8753448,17.6537423 26.8965517,16.1827615 26.8965517,14.6058577 C26.8965517,14.5362808 26.8810345,14.4682615 26.8577586,14.4007615 C24.3910345,15.0975692 20.6906897,15.5768192 16.5517241,15.5768192" id="Fill-85" fill="#FFD949"></path>
                        <g id="Group-89" transform="translate(3.103448, 6.750000)">
                            <mask id="mask-2" fill="white">
                                <use xlink:href="#path-1"></use>
                            </mask>
                            <g id="Clip-88"></g>
                            <path d="M23.2723448,0.285161538 C21.6632069,1.5417 16.4866552,2.59625769 10.344931,2.59625769 C6.37872414,2.59625769 2.81441379,2.15595 0.352862069,1.50587308 C0.124758621,1.70837308 0.000103448276,1.92125769 0.000103448276,2.14452692 C0.000103448276,3.72195 6.02131034,5.19241154 13.4483793,5.19241154 C20.8754483,5.19241154 26.8966552,3.72195 26.8966552,2.14452692 C26.8966552,1.39060385 25.5192414,0.749353846 23.2723448,0.285161538" id="Fill-87" fill="#FCC62D" mask="url(#mask-2)"></path>
                        </g>
                    </g>
                </g>
            </g>
        </g>
    </g>
</svg>