<?xml version="1.0" encoding="UTF-8"?>
<svg width="112px" height="112px" viewBox="0 0 112 112" version="1.1" xmlns="http://www.w3.org/2000/svg" xmlns:xlink="http://www.w3.org/1999/xlink">
    <!-- Generator: Sketch 49.3 (51167) - http://www.bohemiancoding.com/sketch -->
    <title>stadium</title>
    <desc>Created with Sketch.</desc>
    <defs>
        <polygon id="path-1" points="0.0015 3.7545 86.23 3.7545 86.23 43.7445 0.0015 43.7445"></polygon>
        <polygon id="path-3" points="0.00116307309 1.475 86.23 1.475 86.23 41.4625 0.00116307309 41.4625"></polygon>
        <polygon id="path-5" points="13 85.5255 99.23 85.5255 99.23 27.0005 13 27.0005"></polygon>
    </defs>
    <g id="Page-1" stroke="none" stroke-width="1" fill="none" fill-rule="evenodd">
        <g id="Desktop-HD-Copy-4" transform="translate(-1216.000000, -421.000000)">
            <g id="right-col" transform="translate(1104.000000, 64.000000)">
                <g id="Group-6" transform="translate(47.000000, 357.000000)">
                    <g id="stadium" transform="translate(65.000000, 0.000000)">
                        <circle id="Oval-4" fill="#FFFFFF" opacity="0.900000036" cx="56" cy="56" r="56"></circle>
                        <g id="Group-3" transform="translate(13.000000, 40.525500)">
                            <mask id="mask-2" fill="white">
                                <use xlink:href="#path-1"></use>
                            </mask>
                            <g id="Clip-2"></g>
                            <path d="M16.6215,9.8045 L69.9015,9.8045 C66.6615,8.2545 62.9115,7.2895 58.7715,7.1845 C53.5065,7.0445 47.7615,6.9545 41.8615,6.9545 C36.8865,6.9545 32.0115,7.0195 27.5415,7.1845 C23.5015,7.3295 19.8265,8.2845 16.6215,9.8045 M27.4265,3.9945 C32.1415,3.8245 37.0265,3.7545 41.8615,3.7545 C47.4665,3.7545 53.2965,3.8545 58.8465,3.9945 C65.6565,4.1695 71.5215,6.4395 76.0665,9.8045 L86.1365,9.8045 L86.1365,26.1045 C86.1665,26.3645 86.1865,26.6145 86.2015,26.8695 C86.2565,27.7895 86.2365,28.6895 86.1365,29.5845 C85.9315,31.4595 85.3815,33.2645 84.4565,34.9245 C81.6065,40.0645 75.2615,43.7445 64.6015,43.7445 L43.1215,43.7445 L21.6515,43.7445 C11.0365,43.7445 4.7015,40.1645 1.8265,35.1395 C0.8515,33.4395 0.2765,31.5795 0.0815,29.6445 L0.0315,29.5845 L0.0315,28.9945 C-0.0085,28.3645 -0.0085,27.7245 0.0315,27.0845 L0.0315,9.8045 L10.4215,9.8045 C14.9415,6.4895 20.7465,4.2345 27.4265,3.9945" id="Fill-1" fill="#989898" mask="url(#mask-2)"></path>
                        </g>
                        <path d="M40.4855,28.831 C50.4655,28.476 61.7955,28.576 71.8105,28.831 C98.9855,29.536 110.3705,65.391 77.6005,65.391 L56.1205,65.391 L34.6505,65.391 C1.6705,65.391 13.4755,29.806 40.4855,28.831" id="Fill-4" fill="#F59799"></path>
                        <path d="M32.4975,44.28 L79.7575,44.28 L85.2375,32.465 C81.4425,30.33 76.9025,28.965 71.8075,28.83 C61.7925,28.575 50.4675,28.475 40.4875,28.83 C35.4125,29.015 30.8775,30.42 27.0725,32.58 L32.4975,44.28 Z" id="Fill-6" fill="#EC6F70"></path>
                        <path d="M44.587,38.4015 C51.952,38.1365 60.302,38.2115 67.687,38.4015 C87.727,38.9215 96.122,65.3865 71.957,65.3865 L56.122,65.3865 L40.287,65.3865 C15.967,65.3865 24.672,39.1215 44.587,38.4015" id="Fill-8" fill="#FECC05"></path>
                        <g id="Group-12" transform="translate(13.000000, 25.525500)">
                            <mask id="mask-4" fill="white">
                                <use xlink:href="#path-3"></use>
                            </mask>
                            <g id="Clip-11"></g>
                            <path d="M41.8605,4.6725 C36.8855,4.6725 32.0105,4.7425 27.5405,4.9025 C17.0555,5.2775 9.0155,11.1525 5.3405,17.9325 C4.0855,20.2575 3.3505,22.6675 3.2155,24.9825 C3.0855,27.2275 3.5205,29.3825 4.6005,31.2725 C6.9405,35.3575 12.3555,38.2625 21.6505,38.2625 L43.1205,38.2625 L64.6005,38.2625 C73.9255,38.2625 79.3505,35.2725 81.6705,31.0975 C82.7255,29.1975 83.1505,27.0325 83.0105,24.7775 C82.8755,22.4675 82.1505,20.0625 80.9105,17.7575 C77.2655,10.9875 69.2755,5.1725 58.7705,4.9025 C53.5055,4.7675 47.7605,4.6725 41.8605,4.6725 M27.4255,1.7125 C32.1455,1.5425 37.0255,1.4725 41.8605,1.4725 C47.4655,1.4725 53.2955,1.5725 58.8455,1.7125 C70.6205,2.0175 79.6055,8.5925 83.7205,16.2425 C85.1805,18.9525 86.0355,21.8125 86.2005,24.5875 C86.3705,27.4325 85.8205,30.1925 84.4605,32.6475 C81.6055,37.7825 75.2605,41.4625 64.6005,41.4625 L43.1205,41.4625 L21.6505,41.4625 C11.0355,41.4625 4.7005,37.8875 1.8255,32.8625 C0.4255,30.4175 -0.1395,27.6575 0.0305,24.8025 C0.1905,22.0125 1.0605,19.1475 2.5305,16.4275 C6.6755,8.7625 15.7055,2.1325 27.4255,1.7125" id="Fill-10" fill="#CCCCCB" mask="url(#mask-4)"></path>
                        </g>
                        <polygon id="Fill-13" fill="#8EB93E" points="34.065 42.615 77.66 42.615 82.38 61.14 29.345 61.14"></polygon>
                        <polygon id="Fill-15" fill="#BAD336" points="36.5015 43.714 75.2215 43.714 78.6715 60.129 33.0565 60.129"></polygon>
                        <polygon id="Fill-17" fill="#FEFEFE" points="55.9885 43.714 55.9885 56.914 55.9885 60.129 55.6785 60.129 55.6785 56.914 55.6785 56.674 55.6785 43.714"></polygon>
                        <path d="M70.134,56.912 C69.909,55.562 69.279,51.897 68.134,45.217 L75.539,45.217 L75.469,44.902 L67.949,44.902 L67.759,44.902 L67.789,45.087 C68.954,51.832 69.584,55.522 69.819,56.912 L70.134,56.912 Z" id="Fill-19" fill="#FEFEFE"></path>
                        <path d="M75.0805,56.4725 C74.6655,54.4525 74.1455,51.8375 73.3605,47.6475 L76.0505,47.6475 L75.9855,47.3325 L73.1755,47.3325 L72.9855,47.3325 L73.0205,47.5225 C73.8155,51.7675 74.3455,54.4225 74.7655,56.4725 L75.0805,56.4725 Z" id="Fill-21" fill="#FEFEFE"></path>
                        <path d="M41.5305,56.912 C41.7555,55.562 42.3855,51.897 43.5305,45.217 L36.1855,45.217 L36.2505,44.902 L43.7155,44.902 L43.9055,44.902 L43.8755,45.087 C42.7105,51.832 42.0805,55.522 41.8455,56.912 L41.5305,56.912 Z" id="Fill-23" fill="#FEFEFE"></path>
                        <path d="M36.5845,56.4725 C36.9995,54.4575 37.5195,51.8375 38.3045,47.6475 L35.6745,47.6475 L35.7395,47.3325 L38.4895,47.3325 L38.6795,47.3325 L38.6445,47.5225 C37.8495,51.7675 37.3195,54.4225 36.8995,56.4725 L36.5845,56.4725 Z" id="Fill-25" fill="#FEFEFE"></path>
                        <path d="M60.2755,48.7675 C59.1355,48.1375 57.5655,47.7475 55.8205,47.7475 C54.0805,47.7475 52.5055,48.1375 51.3705,48.7675 C50.2605,49.3825 49.5755,50.2225 49.5755,51.1425 C49.5755,52.0575 50.2605,52.8975 51.3705,53.5125 C52.5055,54.1425 54.0805,54.5325 55.8205,54.5325 C57.5655,54.5325 59.1355,54.1425 60.2755,53.5125 C61.3855,52.8975 62.0655,52.0575 62.0655,51.1425 C62.0655,50.2225 61.3855,49.3825 60.2755,48.7675 M55.8205,47.4275 C57.6155,47.4275 59.2405,47.8325 60.4205,48.4875 C61.6305,49.1625 62.3805,50.1025 62.3805,51.1425 C62.3805,52.1875 61.6305,53.1225 60.4205,53.7925 C59.2405,54.4525 57.6155,54.8575 55.8205,54.8575 C54.0255,54.8575 52.4005,54.4525 51.2155,53.7925 C50.0105,53.1225 49.2605,52.1875 49.2605,51.1425 C49.2605,50.1025 50.0105,49.1625 51.2155,48.4875 C52.4005,47.8325 54.0255,47.4275 55.8205,47.4275" id="Fill-27" fill="#FEFEFE"></path>
                        <path d="M43.0445,48.7625 C43.2145,48.8375 43.3795,48.9175 43.5395,49.0075 C44.5745,49.5825 45.2145,50.3825 45.2145,51.2825 C45.2145,52.1825 44.5745,52.9825 43.5395,53.5575 C43.1395,53.7825 42.6745,53.9675 42.1645,54.1125 L42.2245,53.7675 C42.6545,53.6375 43.0445,53.4675 43.3845,53.2775 C44.3245,52.7625 44.8995,52.0525 44.8995,51.2825 C44.8995,50.5125 44.3245,49.8025 43.3845,49.2825 C43.2595,49.2175 43.1295,49.1475 42.9895,49.0825 L43.0445,48.7625 Z" id="Fill-29" fill="#FEFEFE"></path>
                        <path d="M68.5425,48.88 C68.3675,48.96 68.2025,49.035 68.0425,49.125 C67.0075,49.7 66.3675,50.5 66.3675,51.4 C66.3675,52.3 67.0075,53.1 68.0425,53.675 C68.4425,53.9 68.9075,54.085 69.4175,54.23 L69.3575,53.885 C68.9275,53.755 68.5375,53.585 68.1975,53.395 C67.2575,52.88 66.6825,52.17 66.6825,51.4 C66.6825,50.63 67.2575,49.92 68.1975,49.4 C68.3225,49.335 68.4525,49.265 68.5925,49.2 L68.5425,48.88 Z" id="Fill-31" fill="#FEFEFE"></path>
                        <polygon id="Fill-33" fill="#FEFEFE" points="70.1585 58.3085 78.2885 58.3085 78.3585 58.6285 70.1185 58.6235"></polygon>
                        <polygon id="Fill-35" fill="#FEFEFE" points="69.939 55.7595 70.424 58.4995 70.119 58.6245 69.624 55.7595"></polygon>
                        <polygon id="Fill-37" fill="#FEFEFE" points="74.8655 56.1505 77.8355 56.1505 77.9005 56.4705 74.8255 56.4705"></polygon>
                        <polygon id="Fill-39" fill="#FEFEFE" points="41.506 58.3085 33.436 58.3085 33.366 58.6335 41.546 58.6285"></polygon>
                        <polygon id="Fill-41" fill="#FEFEFE" points="41.726 55.7595 41.241 58.5045 41.546 58.6295 42.041 55.7595"></polygon>
                        <polygon id="Fill-43" fill="#FEFEFE" points="36.799 56.155 33.889 56.155 33.819 56.47 36.839 56.47"></polygon>
                        <polygon id="Fill-45" fill="#CCCCCB" points="41.853 69.7685 70.348 69.8935 70.348 74.8285 56.183 79.0085 41.853 74.7635"></polygon>
                        <mask id="mask-6" fill="white">
                            <use xlink:href="#path-5"></use>
                        </mask>
                        <g id="Clip-48"></g>
                        <polygon id="Fill-47" fill="#808080" mask="url(#mask-6)" points="41.855 85.5255 70.35 85.5255 70.35 72.9455 41.855 72.9455"></polygon>
                        <polygon id="Fill-49" fill="#333333" mask="url(#mask-6)" points="44.04 85.5255 68.16 85.5255 68.16 77.0805 44.04 77.0805"></polygon>
                        <polygon id="Fill-50" fill="#808080" mask="url(#mask-6)" points="55.24 85.5255 56.965 85.5255 56.965 75.5505 55.24 75.5505"></polygon>
                    </g>
                </g>
            </g>
        </g>
    </g>
</svg>