<?xml version="1.0" encoding="UTF-8"?>
<svg width="112px" height="112px" viewBox="0 0 112 112" version="1.1" xmlns="http://www.w3.org/2000/svg" xmlns:xlink="http://www.w3.org/1999/xlink">
    <!-- Generator: Sketch 49.3 (51167) - http://www.bohemiancoding.com/sketch -->
    <title>watering</title>
    <desc>Created with Sketch.</desc>
    <defs></defs>
    <g id="Page-1" stroke="none" stroke-width="1" fill="none" fill-rule="evenodd">
        <g id="Desktop-HD-Copy-4" transform="translate(-1216.000000, -151.000000)">
            <g id="right-col" transform="translate(1104.000000, 64.000000)">
                <g id="Group-6" transform="translate(46.000000, 87.000000)">
                    <g id="watering" transform="translate(66.000000, 0.000000)">
                        <circle id="Oval-4" fill="#FFFFFF" opacity="0.900000036" cx="56" cy="56" r="56"></circle>
                        <polygon id="Shape" fill="#BF7447" fill-rule="nonzero" points="63.299802 43.1599844 62.5042376 48.4162832 56 51.8632129 49.4957624 48.4162832 48.700198 43.1599844"></polygon>
                        <polygon id="Shape" fill="#DF8853" fill-rule="nonzero" points="62.5042376 48.4162832 61.5672079 54.6187949 50.4327921 54.6187949 49.4957624 48.4162832"></polygon>
                        <g id="Group" transform="translate(26.059406, 25.638672)" fill="#A0613C" fill-rule="nonzero">
                            <path d="M57.0349307,0.146021484 L57.0349307,59.5558104 C57.0349307,60.1143706 57.6142574,60.5672105 58.3291881,60.5672105 C59.0441188,60.5672105 59.6234455,60.1143706 59.6234455,59.5558104 L59.6234455,0.146021484 L57.0349307,0.146021484 Z" id="Shape"></path>
                            <path d="M0.153821782,0.146021484 L0.153821782,59.5558104 C0.153821782,60.1143706 0.733148515,60.5672105 1.44807921,60.5672105 C2.1630099,60.5672105 2.74233663,60.1143706 2.74233663,59.5558104 L2.74233663,0.146021484 L0.153821782,0.146021484 Z" id="Shape"></path>
                        </g>
                        <path d="M63.7305347,43.1601426 L61.1420198,43.1601426 C61.1420198,40.328623 58.8354851,38.0250273 56,38.0250273 C53.1645149,38.0250273 50.8579802,40.3284648 50.8579802,43.1601426 L48.2694653,43.1601426 C48.2694653,38.9032129 51.737505,35.4399883 56,35.4399883 C60.262495,35.4399883 63.7305347,38.9033711 63.7305347,43.1601426 Z" id="Shape" fill="#94C8EF" fill-rule="nonzero"></path>
                        <polygon id="Shape" fill="#FEBB8E" fill-rule="nonzero" points="77.4368317 67.5237402 77.4368317 74.4172832 55.948198 79.5875195 34.4595644 74.4172832 34.4595644 67.5237402"></polygon>
                        <rect id="Rectangle-path" fill="#FCD5A2" fill-rule="nonzero" x="34.4595644" y="74.4172832" width="42.9774257" height="12.2900391"></rect>
                        <path d="M77.4887921,59.9595742 L34.5112079,59.9595742 C33.6251881,59.9595742 32.9069307,60.6768672 32.9069307,61.5616973 L32.9069307,69.2475215 L79.0930693,69.2475215 L79.0930693,61.5616973 C79.0930693,60.6768672 78.3748119,59.9595742 77.4887921,59.9595742 Z" id="Shape" fill="#FEAB75" fill-rule="nonzero"></path>
                        <path d="M86.6688317,27.0773711 L25.3311683,27.0773711 C24.6162376,27.0773711 24.0369109,26.4986641 24.0369109,25.7848516 C24.0369109,25.0710391 24.6162376,24.492332 25.3311683,24.492332 L86.6688317,24.492332 C87.3837624,24.492332 87.9630891,25.0710391 87.9630891,25.7848516 C87.9630891,26.4986641 87.383604,27.0773711 86.6688317,27.0773711 Z" id="Shape" fill="#804E30" fill-rule="nonzero"></path>
                        <g id="Group" transform="translate(44.910891, 22.000000)" fill="#FEBB8E" fill-rule="nonzero">
                            <path d="M11.0891089,17.8051289 C10.3741782,17.8051289 9.79485149,17.2264219 9.79485149,16.5126094 L9.79485149,1.29251953 C9.79485149,0.578707031 10.3741782,0 11.0891089,0 C11.8040396,0 12.3833663,0.578707031 12.3833663,1.29251953 L12.3833663,16.5126094 C12.3833663,17.2265801 11.8040396,17.8051289 11.0891089,17.8051289 Z" id="Shape"></path>
                            <path d="M1.42938614,7.56954492 C0.714455446,7.56954492 0.135128713,6.99083789 0.135128713,6.27702539 L0.135128713,1.29251953 C0.135128713,0.578707031 0.714455446,0 1.42938614,0 C2.14431683,0 2.72364356,0.578707031 2.72364356,1.29251953 L2.72364356,6.27702539 C2.72364356,6.99083789 2.14431683,7.56954492 1.42938614,7.56954492 Z" id="Shape"></path>
                        </g>
                        <g id="Group" transform="translate(49.821782, 22.000000)" fill="#FCD5A2" fill-rule="nonzero">
                            <path d="M1.34843564,7.56954492 C0.63350495,7.56954492 0.0541782178,6.99083789 0.0541782178,6.27702539 L0.0541782178,1.29251953 C0.0541782178,0.578707031 0.63350495,0 1.34843564,0 C2.06336634,0 2.64269307,0.578707031 2.64269307,1.29251953 L2.64269307,6.27702539 C2.64269307,6.99083789 2.06320792,7.56954492 1.34843564,7.56954492 Z" id="Shape"></path>
                            <path d="M11.008,7.56954492 C10.2930693,7.56954492 9.71374257,6.99083789 9.71374257,6.27702539 L9.71374257,1.29251953 C9.71374257,0.578707031 10.2930693,0 11.008,0 C11.7229307,0 12.3022574,0.578707031 12.3022574,1.29251953 L12.3022574,6.27702539 C12.3022574,6.99083789 11.7229307,7.56954492 11.008,7.56954492 Z" id="Shape"></path>
                        </g>
                        <path d="M66.1774257,29.5695449 C65.462495,29.5695449 64.8831683,28.9908379 64.8831683,28.2770254 L64.8831683,23.2925195 C64.8831683,22.578707 65.462495,22 66.1774257,22 C66.8923564,22 67.4716832,22.578707 67.4716832,23.2925195 L67.4716832,28.2770254 C67.4716832,28.9908379 66.892198,29.5695449 66.1774257,29.5695449 Z" id="Shape" fill="#FEBB8E" fill-rule="nonzero"></path>
                        <path d="M64.161901,44.9696699 L47.838099,44.9696699 C47.1231683,44.9696699 46.5438416,44.3909629 46.5438416,43.6771504 C46.5438416,42.9633379 47.1231683,42.3846309 47.838099,42.3846309 L64.1620594,42.3846309 C64.8769901,42.3846309 65.4563168,42.9633379 65.4563168,43.6771504 C65.4563168,44.3909629 64.8768317,44.9696699 64.161901,44.9696699 Z" id="Shape" fill="#804E30" fill-rule="nonzero"></path>
                        <g id="Group" transform="translate(66.415842, 78.478516)" fill="#FEBB8E" fill-rule="nonzero">
                            <path d="M5.61647525,2.74229297 L2.16506931,2.74229297 C1.45013861,2.74229297 0.870811881,2.16358594 0.870811881,1.44977344 C0.870811881,0.735960937 1.45013861,0.157253906 2.16506931,0.157253906 L5.61647525,0.157253906 C6.33140594,0.157253906 6.91073267,0.735960937 6.91073267,1.44977344 C6.91073267,2.16358594 6.33140594,2.74229297 5.61647525,2.74229297 Z" id="Shape"></path>
                        </g>
                    </g>
                </g>
            </g>
        </g>
    </g>
</svg>